# ProBuilder 5.0.3
# https://unity3d.com/unity/features/worldbuilding/probuilder
# 2/26/2022 1:29:12 PM

mtllib ./Cylinder.mtl
o Cylinder

g Cylinder
v -5 0 0
v -4.755283 0 1.545085
v -4.045085 0 2.938926
v -2.938926 0 4.045085
v -1.545085 0 4.755283
v 2.185569E-07 0 5
v 1.545085 0 4.755283
v 2.938926 0 4.045085
v 4.045085 0 2.938926
v 4.755282 0 1.545085
v 5 0 -4.371139E-07
v 4.755283 0 -1.545085
v 4.045085 0 -2.938926
v 2.938927 0 -4.045084
v 1.545085 0 -4.755282
v -5.96244E-08 0 -5
v -1.545086 0 -4.755282
v -2.938925 0 -4.045085
v -4.045085 0 -2.938926
v -4.755283 0 -1.545085
v 0 0 0

vt 0 0
vt -5 0
vt -4.755283 1.545085
vt 5 0
vt 4.755283 1.545085
vt -4.045085 2.938926
vt 4.045085 2.938926
vt -2.938926 4.045085
vt 2.938926 4.045085
vt -1.545085 4.755283
vt 1.545085 4.755283
vt 2.185569E-07 5
vt 4.755283 -1.545085
vt -4.755283 -1.545085
vt 4.045085 -2.938926
vt -4.045085 -2.938926
vt 2.938927 -4.045084
vt -2.938927 -4.045084
vt 1.545085 -4.755282
vt -1.545085 -4.755282
vt -5.96244E-08 -5

vn 0 0 0
vn 0 -1 0
vn 0 1 0

usemtl Default_ProBuild
f 2/1/1 1/1/1 1/1/1
f 2/1/1 2/1/1 1/1/1
f 3/1/1 2/1/1 2/1/1
f 3/1/1 3/1/1 2/1/1
f 4/1/1 3/1/1 3/1/1
f 4/1/1 4/1/1 3/1/1
f 5/1/1 4/1/1 4/1/1
f 5/1/1 5/1/1 4/1/1
f 6/1/1 5/1/1 5/1/1
f 6/1/1 6/1/1 5/1/1
f 7/1/1 6/1/1 6/1/1
f 7/1/1 7/1/1 6/1/1
f 8/1/1 7/1/1 7/1/1
f 8/1/1 8/1/1 7/1/1
f 9/1/1 8/1/1 8/1/1
f 9/1/1 9/1/1 8/1/1
f 10/1/1 9/1/1 9/1/1
f 10/1/1 10/1/1 9/1/1
f 11/1/1 10/1/1 10/1/1
f 11/1/1 11/1/1 10/1/1
f 12/1/1 11/1/1 11/1/1
f 12/1/1 12/1/1 11/1/1
f 13/1/1 12/1/1 12/1/1
f 13/1/1 13/1/1 12/1/1
f 14/1/1 13/1/1 13/1/1
f 14/1/1 14/1/1 13/1/1
f 15/1/1 14/1/1 14/1/1
f 15/1/1 15/1/1 14/1/1
f 16/1/1 15/1/1 15/1/1
f 16/1/1 16/1/1 15/1/1
f 17/1/1 16/1/1 16/1/1
f 17/1/1 17/1/1 16/1/1
f 18/1/1 17/1/1 17/1/1
f 18/1/1 18/1/1 17/1/1
f 19/1/1 18/1/1 18/1/1
f 19/1/1 19/1/1 18/1/1
f 20/1/1 19/1/1 19/1/1
f 20/1/1 20/1/1 19/1/1
f 1/1/1 20/1/1 20/1/1
f 1/1/1 1/1/1 20/1/1
f 1/2/2 21/1/2 2/3/2
f 2/3/2 21/1/2 3/6/2
f 3/6/2 21/1/2 4/8/2
f 4/8/2 21/1/2 5/10/2
f 5/10/2 21/1/2 6/12/2
f 6/12/2 21/1/2 7/11/2
f 7/11/2 21/1/2 8/9/2
f 8/9/2 21/1/2 9/7/2
f 9/7/2 21/1/2 10/5/2
f 10/5/2 21/1/2 11/4/2
f 11/4/2 21/1/2 12/13/2
f 12/13/2 21/1/2 13/15/2
f 13/15/2 21/1/2 14/17/2
f 14/17/2 21/1/2 15/19/2
f 15/19/2 21/1/2 16/21/2
f 16/21/2 21/1/2 17/20/2
f 17/20/2 21/1/2 18/18/2
f 18/18/2 21/1/2 19/16/2
f 19/16/2 21/1/2 20/14/2
f 20/14/2 21/1/2 1/2/2
f 2/5/3 21/1/3 1/4/3
f 3/7/3 21/1/3 2/5/3
f 4/9/3 21/1/3 3/7/3
f 5/11/3 21/1/3 4/9/3
f 6/12/3 21/1/3 5/11/3
f 7/10/3 21/1/3 6/12/3
f 8/8/3 21/1/3 7/10/3
f 9/6/3 21/1/3 8/8/3
f 10/3/3 21/1/3 9/6/3
f 11/2/3 21/1/3 10/3/3
f 12/14/3 21/1/3 11/2/3
f 13/16/3 21/1/3 12/14/3
f 14/18/3 21/1/3 13/16/3
f 15/20/3 21/1/3 14/18/3
f 16/21/3 21/1/3 15/20/3
f 17/19/3 21/1/3 16/21/3
f 18/17/3 21/1/3 17/19/3
f 19/15/3 21/1/3 18/17/3
f 20/13/3 21/1/3 19/15/3
f 1/4/3 21/1/3 20/13/3

